<svg width="13" height="13" viewBox="0 0 13 13" fill="none" xmlns="http://www.w3.org/2000/svg">
<path d="M7.66235 8.77058C7.66235 9.01086 7.49454 9.20548 7.28735 9.20548H5.03735C4.83017 9.20548 4.66235 9.01086 4.66235 8.77058V7.46586H0.162354V11.38C0.162354 12.0759 0.687354 12.6847 1.28735 12.6847H11.0374C11.6374 12.6847 12.1624 12.0759 12.1624 11.38V7.46586H7.66235V8.77058ZM11.0374 3.11682H9.16235V1.8121C9.16235 1.11625 8.63735 0.507385 8.03735 0.507385H4.28735C3.68735 0.507385 3.16235 1.11625 3.16235 1.8121V3.11682H1.28735C0.687354 3.11682 0.162354 3.72568 0.162354 4.42153V6.59606H12.1624V4.42153C12.1624 3.72568 11.6374 3.11682 11.0374 3.11682ZM7.66235 3.11682H4.66235V2.247H7.66235V3.11682Z" fill="white"/>
</svg>
